<mxfile host="Electron" agent="Mozilla/5.0 (X11; Linux x86_64) AppleWebKit/537.36 (KHTML, like Gecko) draw.io/24.7.17 Chrome/128.0.6613.36 Electron/32.0.1 Safari/537.36" version="24.7.17">
  <diagram name="Page-1" id="c3pqOLcvoEaw7ju361JV">
    <mxGraphModel dx="530" dy="353" grid="1" gridSize="10" guides="1" tooltips="1" connect="1" arrows="1" fold="1" page="1" pageScale="1" pageWidth="827" pageHeight="1169" math="0" shadow="0">
      <root>
        <mxCell id="0" />
        <mxCell id="1" parent="0" />
        <mxCell id="myyMY5HUK3otsxRcEQmG-3" value="" style="shape=mxgraph.cisco.computers_and_peripherals.workstation;sketch=0;html=1;pointerEvents=1;dashed=0;fillColor=#036897;strokeColor=#ffffff;strokeWidth=2;verticalLabelPosition=bottom;verticalAlign=top;align=center;outlineConnect=0;" vertex="1" parent="1">
          <mxGeometry x="414" y="480" width="83" height="62" as="geometry" />
        </mxCell>
        <mxCell id="myyMY5HUK3otsxRcEQmG-5" value="" style="endArrow=none;html=1;rounded=0;strokeWidth=3;exitX=0.98;exitY=0.5;exitDx=0;exitDy=0;exitPerimeter=0;entryX=0;entryY=0.5;entryDx=0;entryDy=0;entryPerimeter=0;" edge="1" parent="1" source="myyMY5HUK3otsxRcEQmG-2" target="myyMY5HUK3otsxRcEQmG-15">
          <mxGeometry width="50" height="50" relative="1" as="geometry">
            <mxPoint x="320" y="380" as="sourcePoint" />
            <mxPoint x="390" y="390" as="targetPoint" />
          </mxGeometry>
        </mxCell>
        <mxCell id="myyMY5HUK3otsxRcEQmG-6" value="" style="endArrow=none;html=1;rounded=0;strokeWidth=3;" edge="1" parent="1" source="myyMY5HUK3otsxRcEQmG-3" target="myyMY5HUK3otsxRcEQmG-15">
          <mxGeometry width="50" height="50" relative="1" as="geometry">
            <mxPoint x="439.5" y="470" as="sourcePoint" />
            <mxPoint x="450" y="430" as="targetPoint" />
          </mxGeometry>
        </mxCell>
        <mxCell id="myyMY5HUK3otsxRcEQmG-7" value="" style="endArrow=none;html=1;rounded=0;strokeWidth=3;entryX=0.5;entryY=0.98;entryDx=0;entryDy=0;entryPerimeter=0;" edge="1" parent="1" source="myyMY5HUK3otsxRcEQmG-4" target="myyMY5HUK3otsxRcEQmG-2">
          <mxGeometry width="50" height="50" relative="1" as="geometry">
            <mxPoint x="223" y="460" as="sourcePoint" />
            <mxPoint x="273" y="410" as="targetPoint" />
          </mxGeometry>
        </mxCell>
        <mxCell id="myyMY5HUK3otsxRcEQmG-13" value="" style="group" vertex="1" connectable="0" parent="1">
          <mxGeometry x="181" y="360" width="101" height="50" as="geometry" />
        </mxCell>
        <mxCell id="myyMY5HUK3otsxRcEQmG-2" value="" style="shape=mxgraph.cisco.switches.workgroup_switch;sketch=0;html=1;pointerEvents=1;dashed=0;fillColor=#036897;strokeColor=#ffffff;strokeWidth=2;verticalLabelPosition=bottom;verticalAlign=top;align=center;outlineConnect=0;" vertex="1" parent="myyMY5HUK3otsxRcEQmG-13">
          <mxGeometry width="101" height="50" as="geometry" />
        </mxCell>
        <mxCell id="myyMY5HUK3otsxRcEQmG-11" value="&lt;font style=&quot;font-size: 20px;&quot; color=&quot;#ffffff&quot;&gt;S1&lt;/font&gt;" style="text;strokeColor=none;fillColor=none;html=1;fontSize=20;fontStyle=1;verticalAlign=middle;align=center;" vertex="1" parent="myyMY5HUK3otsxRcEQmG-13">
          <mxGeometry x="19" y="24" width="47" height="23" as="geometry" />
        </mxCell>
        <mxCell id="myyMY5HUK3otsxRcEQmG-14" value="" style="group" vertex="1" connectable="0" parent="1">
          <mxGeometry x="405" y="360" width="101" height="50" as="geometry" />
        </mxCell>
        <mxCell id="myyMY5HUK3otsxRcEQmG-15" value="" style="shape=mxgraph.cisco.switches.workgroup_switch;sketch=0;html=1;pointerEvents=1;dashed=0;fillColor=#036897;strokeColor=#ffffff;strokeWidth=2;verticalLabelPosition=bottom;verticalAlign=top;align=center;outlineConnect=0;" vertex="1" parent="myyMY5HUK3otsxRcEQmG-14">
          <mxGeometry width="101" height="50" as="geometry" />
        </mxCell>
        <mxCell id="myyMY5HUK3otsxRcEQmG-16" value="&lt;font style=&quot;font-size: 20px;&quot; color=&quot;#ffffff&quot;&gt;S2&lt;/font&gt;" style="text;strokeColor=none;fillColor=none;html=1;fontSize=20;fontStyle=1;verticalAlign=middle;align=center;" vertex="1" parent="myyMY5HUK3otsxRcEQmG-14">
          <mxGeometry x="15" y="24" width="47" height="23" as="geometry" />
        </mxCell>
        <mxCell id="myyMY5HUK3otsxRcEQmG-21" value="F0/6" style="text;strokeColor=none;fillColor=none;html=1;fontSize=12;fontStyle=1;verticalAlign=middle;align=center;" vertex="1" parent="1">
          <mxGeometry x="190" y="410" width="40" height="20" as="geometry" />
        </mxCell>
        <mxCell id="myyMY5HUK3otsxRcEQmG-22" value="F0/1" style="text;strokeColor=none;fillColor=none;html=1;fontSize=12;fontStyle=1;verticalAlign=middle;align=center;" vertex="1" parent="1">
          <mxGeometry x="377" y="366" width="40" height="20" as="geometry" />
        </mxCell>
        <mxCell id="myyMY5HUK3otsxRcEQmG-23" value="F0/1" style="text;strokeColor=none;fillColor=none;html=1;fontSize=12;fontStyle=1;verticalAlign=middle;align=center;" vertex="1" parent="1">
          <mxGeometry x="267" y="386" width="40" height="20" as="geometry" />
        </mxCell>
        <mxCell id="myyMY5HUK3otsxRcEQmG-24" value="F0/18" style="text;strokeColor=none;fillColor=none;html=1;fontSize=12;fontStyle=1;verticalAlign=middle;align=center;" vertex="1" parent="1">
          <mxGeometry x="405" y="410" width="40" height="20" as="geometry" />
        </mxCell>
        <mxCell id="myyMY5HUK3otsxRcEQmG-27" value="" style="group" vertex="1" connectable="0" parent="1">
          <mxGeometry x="190" y="480" width="83" height="62" as="geometry" />
        </mxCell>
        <mxCell id="myyMY5HUK3otsxRcEQmG-4" value="" style="shape=mxgraph.cisco.computers_and_peripherals.workstation;sketch=0;html=1;pointerEvents=1;dashed=0;fillColor=#036897;strokeColor=#ffffff;strokeWidth=2;verticalLabelPosition=bottom;verticalAlign=top;align=center;outlineConnect=0;" vertex="1" parent="myyMY5HUK3otsxRcEQmG-27">
          <mxGeometry width="83" height="62" as="geometry" />
        </mxCell>
        <mxCell id="myyMY5HUK3otsxRcEQmG-26" value="&lt;font style=&quot;font-size: 14px;&quot;&gt;PC-A&lt;/font&gt;" style="text;strokeColor=none;fillColor=none;html=1;fontSize=20;fontStyle=1;verticalAlign=middle;align=center;" vertex="1" parent="myyMY5HUK3otsxRcEQmG-27">
          <mxGeometry x="13" y="7" width="40" height="20" as="geometry" />
        </mxCell>
        <mxCell id="myyMY5HUK3otsxRcEQmG-28" value="&lt;font style=&quot;font-size: 14px;&quot;&gt;PC-B&lt;/font&gt;" style="text;strokeColor=none;fillColor=none;html=1;fontSize=20;fontStyle=1;verticalAlign=middle;align=center;" vertex="1" parent="1">
          <mxGeometry x="427" y="486" width="40" height="20" as="geometry" />
        </mxCell>
      </root>
    </mxGraphModel>
  </diagram>
</mxfile>
